inDegrees=no
num_controls=7
num_derivatives=13
num_iterations=124
num_multipliers=7
num_parameters=0
num_slacks=7
num_states=26
objective=5.736088
objective_accelerations=0.462742
objective_balance=0.058454
objective_effort=0.419044
objective_height=4.771995
objective_ligament=0.023853
solver_duration=1304.609243
status=Solve_Succeeded
success=true
DataType=double
version=3
OpenSimVersion=4.4-2022-07-23-0e9fedc
endheader
time	/jointset/ground_pelvis/pelvis_tilt/value	/jointset/ground_pelvis/pelvis_tx/value	/jointset/ground_pelvis/pelvis_ty/value	/jointset/hip_l/hip_flexion_l/value	/jointset/hip_l/hip_adduction_l/value	/jointset/hip_l/hip_rotation_l/value	/jointset/back/lumbar_extension/value	/jointset/patellofemoral_l/patellar_flexion_l/value	/jointset/knee_l/knee_flexion_l/value	/jointset/knee_l/knee_adduction_l/value	/jointset/knee_l/knee_rotation_l/value	/jointset/ankle_l/ankle_angle_l/value	/jointset/subtalar_l/subtalar_angle_l/value	/jointset/ground_pelvis/pelvis_tilt/speed	/jointset/ground_pelvis/pelvis_tx/speed	/jointset/ground_pelvis/pelvis_ty/speed	/jointset/hip_l/hip_flexion_l/speed	/jointset/hip_l/hip_adduction_l/speed	/jointset/hip_l/hip_rotation_l/speed	/jointset/back/lumbar_extension/speed	/jointset/patellofemoral_l/patellar_flexion_l/speed	/jointset/knee_l/knee_flexion_l/speed	/jointset/knee_l/knee_adduction_l/speed	/jointset/knee_l/knee_rotation_l/speed	/jointset/ankle_l/ankle_angle_l/speed	/jointset/subtalar_l/subtalar_angle_l/speed	/forceset/tau_hip_flexion_l	/forceset/tau_hip_adduction_l	/forceset/tau_hip_rotation_l	/forceset/tau_knee_flexion_l	/forceset/tau_ankle_angle_l	/forceset/tau_subtalar_angle_l	/forceset/tau_lumbar_extension	lambda_cid13_p0	lambda_cid13_p1	lambda_cid13_p2	lambda_cid13_p3	lambda_cid13_p4	lambda_cid13_p5	lambda_cid14_p0	/jointset/ground_pelvis/pelvis_tilt/accel	/jointset/ground_pelvis/pelvis_tx/accel	/jointset/ground_pelvis/pelvis_ty/accel	/jointset/hip_l/hip_flexion_l/accel	/jointset/hip_l/hip_adduction_l/accel	/jointset/hip_l/hip_rotation_l/accel	/jointset/back/lumbar_extension/accel	/jointset/patellofemoral_l/patellar_flexion_l/accel	/jointset/knee_l/knee_flexion_l/accel	/jointset/knee_l/knee_adduction_l/accel	/jointset/knee_l/knee_rotation_l/accel	/jointset/ankle_l/ankle_angle_l/accel	/jointset/subtalar_l/subtalar_angle_l/accel	gamma_cid13_p0	gamma_cid13_p1	gamma_cid13_p2	gamma_cid13_p3	gamma_cid13_p4	gamma_cid13_p5	gamma_cid14_p0
0	-0.03682228800868946	0.05667739498323483	0.920341602744531	0.3085811930696054	-0.2956403044610233	-0.3016047549855864	-0.3879500408040475	0.2499276582272058	0.249927658227084	-0.1745328117910458	-0.1745304724051301	-0.0008036543073733089	0.0004377492389525455	0	0	0	0	0	0	0	0	0	0	0	0	0	0.08396945623258237	-0.05687696000425207	-0.02674450225283074	-0.2981464927383395	0.2959876792261655	-0.03420186190823754	0.005384814607392763	50.83684928634529	4.057420458575997	1.063699200169532	-26.80812313557987	-633.6393494479474	-66.78025207576592	-23.19684921697776	-0.2193185097370291	-1.132252235203825	-0.7303555319781654	6.951660488393273	-0.9657800902340358	3.256640226668142	-6.624492487839761	8.985977780134576	8.985977780133771	0.8929192052339551	-0.03471555213082721	2.722708406254621	-0.098906283064392	-3.385296174991247e-08	1.151668348936011e-07	1.085582785843268e-07	1.811703139470153e-08	2.756392452956255e-08	-5.286328342739775e-08	-7.558070767963427e-09
0.01	-0.03682986200720797	0.05662050268779734	0.9203058698037829	0.3089200768358388	-0.2956883990888304	-0.3014414608360237	-0.3882803620377149	0.2503679100909374	0.2503679100909361	-0.1744910147650627	-0.174528979404602	-0.0006717701014599666	0.0004315285055419882	-0.001437738468315236	-0.01142115171461565	-0.007124905433642078	0.06751613968787472	-0.009549640614479804	0.03248543163070787	-0.06569098191516896	0.08764332934635567	0.08764332934635465	0.008356234673984464	0.0002829818685360702	0.02613733914172476	-0.001253919733886118	0.07263925900923793	-0.07180515172182819	-0.02425728057139219	-0.280850612887061	0.2639573779794214	-0.009130093529019001	0.01355927785396322	41.36484708826703	-5.171709486905965	2.533863273572715	-21.18786612006688	-635.5373420997362	-85.32427917398815	-23.20193369625023	-0.09444996312599868	-1.153446918831672	-0.7003001290310552	6.612491129706314	-0.9391987239304137	3.218475058868939	-6.485411314387863	8.592455513091753	8.592455513091878	0.806532142690952	0.05747651043340823	2.523320759059567	-0.1401312221625859	-5.234436533827485e-08	1.329493904217511e-07	1.625543182208496e-07	3.333178631937908e-08	-4.179271728384981e-08	-8.452285565190326e-08	-1.217663415211124e-08
0.02	-0.03684950308008933	0.05644811881935687	0.9201995393927055	0.3099263020830371	-0.2958299186581538	-0.3009585162846328	-0.3892563951447609	0.2516723842485231	0.2516723842485293	-0.1743657440832466	-0.1745251222945017	-0.000285697685947629	0.0004124692940695651	-0.002413414846025873	-0.02309831460059563	-0.01411949406589036	0.1334682962045526	-0.01868498830400712	0.06393008036529184	-0.1291423746711549	0.1728444587409541	0.172844458740953	0.01669473111637918	0.0004728219005308617	0.05083764192054316	-0.002567695612265884	0.06130906178621649	-0.08673334343938828	-0.02177005889110279	-0.2635547330353862	0.231927076732802	0.01594167485027518	0.02173374110069228	31.96142467884966	-14.41481740414189	4.00850777206214	-15.73976683652397	-636.4497069600862	-103.7880214174948	-23.21689497415902	-0.1269060916125802	-1.183454469479758	-0.7042921716994585	6.638863854154224	-0.8829215052435376	3.048483647442854	-6.176574656001042	8.49753778978377	8.497537789783166	0.8893715589162507	-0.05334391943988883	2.43530113366996	-0.1108775119642867	-7.083576892663723e-08	1.50731945949901e-07	2.165503578573724e-07	4.854654124405664e-08	-1.111493590972622e-07	-1.161824278764088e-07	-1.679519753625906e-08
0.03	-0.03687746106972651	0.0561594058340899	0.9200238518447713	0.3115832042328773	-0.2960606693164126	-0.3001664100390571	-0.3908546791941546	0.2538169224800883	0.2538169224801091	-0.1741572565519594	-0.1745198838979342	0.0003424670372741002	0.0003807984274053894	-0.003169227976897367	-0.03451441067414542	-0.02099924232773693	0.1975154437509535	-0.027402261223441	0.09432777876815522	-0.1900558368442938	0.2556670197026459	0.2556670197026434	0.02496430087487199	0.0005711390500469615	0.07477697399565474	-0.003707797193762731	0.05688228448146251	-0.07694940942097864	-0.02146344297591013	-0.2614929095186355	0.2333180812343489	0.008812954121543712	0.02622265718469083	32.07182948178189	-11.42186383660954	3.626975740859571	-16.63248212244632	-638.2629356541223	-96.86345244824238	-23.24112108198058	-0.04858466615385034	-1.101196646938805	-0.6770226846767274	6.228124803847011	-0.8567520278634132	3.010879603546172	-5.979942237546065	8.115193447806424	8.115193447806565	0.7900276125440799	0.04089366383234978	2.370498525751729	-0.1068227932614417	-9.56581686735999e-08	1.136855785866697e-07	2.779148647979932e-07	6.814820328483201e-08	-2.004024106810244e-07	-1.674234231765961e-07	-2.772453891600747e-08
